# xmcd
#
# Track frame offsets:
#	150
#	15775
#	30550
#
# Disc length: 594 seconds
#
# Revision: 0
# Processed by: cddbd v1.5.2PL0 Copyright (c) Steve Scherf et al.
# Submitted via: audiograbber 1.83.01
#
DISCID=10025003
DTITLE=Tero Kyrölä - Lomaromanssi [CDS)
DYEAR=1994
DGENRE=Pop
TTITLE0=Lomaromanssi
TTITLE1=Ruusun Saat
TTITLE2=Kerro Kuinka Kutsuu Kotimaa
EXTD=TR.
EXTT0=
EXTT1=
EXTT2=
PLAYORDER=
